<svg id="svg" version="1.1" xmlns="http://www.w3.org/2000/svg" xmlns:xlink="http://www.w3.org/1999/xlink" width="400" height="400" viewBox="0, 0, 400,400"><g id="svgg"><path id="path0" d="M153.125 61.583 C 90.274 63.348,59.077 65.606,45.703 69.357 C 30.215 73.702,16.852 86.634,11.765 102.201 C 0.201 137.588,0.192 262.384,11.751 297.755 C 17.771 316.176,32.529 328.277,53.516 331.998 C 107.888 341.639,321.133 340.682,356.641 330.637 C 369.954 326.871,381.665 317.165,387.869 304.754 C 391.535 297.420,394.440 283.566,396.464 263.756 C 397.171 256.845,397.015 140.601,396.290 133.727 C 393.281 105.180,388.772 92.486,377.955 82.101 C 364.805 69.477,352.749 66.500,303.306 63.670 C 272.479 61.905,184.955 60.689,153.125 61.583 M205.273 165.910 C 228.262 179.147,250.762 192.103,255.273 194.701 C 260.115 197.488,263.477 199.660,263.477 200.000 C 263.477 200.502,240.113 214.103,173.172 252.573 C 167.333 255.928,162.367 258.558,162.137 258.415 C 161.663 258.123,161.518 142.127,161.991 141.655 C 162.424 141.221,161.496 140.701,205.273 165.910 " stroke="none" fill="#2494f4" fill-rule="evenodd"></path><path id="path1" d="" stroke="none" fill="#2894f4" fill-rule="evenodd"></path><path id="path2" d="" stroke="none" fill="#2894f4" fill-rule="evenodd"></path><path id="path3" d="" stroke="none" fill="#2894f4" fill-rule="evenodd"></path><path id="path4" d="" stroke="none" fill="#2894f4" fill-rule="evenodd"></path></g></svg>